<?xml version="1.0" encoding="UTF-8" ?>
<svg version="1.1" width="16" height="16" xmlns="http://www.w3.org/2000/svg" shape-rendering="crispEdges">
<rect x="0" y="11" width="1" height="1" fill="#7A7A9E" />
<rect x="1" y="11" width="1" height="1" fill="#7A7A9E" />
<rect x="2" y="11" width="1" height="1" fill="#7A7A9E" />
<rect x="3" y="11" width="1" height="1" fill="#7A7A9E" />
<rect x="4" y="11" width="1" height="1" fill="#7A7A9E" />
<rect x="5" y="11" width="1" height="1" fill="#7A7A9E" />
<rect x="6" y="11" width="1" height="1" fill="#7A7A9E" />
<rect x="7" y="11" width="1" height="1" fill="#C8D6DB" />
<rect x="8" y="11" width="1" height="1" fill="#3E3E52" />
<rect x="9" y="11" width="1" height="1" fill="#7A7A9E" />
<rect x="10" y="11" width="1" height="1" fill="#7A7A9E" />
<rect x="11" y="11" width="1" height="1" fill="#7A7A9E" />
<rect x="12" y="11" width="1" height="1" fill="#7A7A9E" />
<rect x="13" y="11" width="1" height="1" fill="#7A7A9E" />
<rect x="14" y="11" width="1" height="1" fill="#7A7A9E" />
<rect x="15" y="11" width="1" height="1" fill="#C8D6DB" />
<rect x="0" y="12" width="1" height="1" fill="#7A7A9E" />
<rect x="1" y="12" width="1" height="1" fill="#7A7A9E" />
<rect x="2" y="12" width="1" height="1" fill="#7A7A9E" />
<rect x="3" y="12" width="1" height="1" fill="#7A7A9E" />
<rect x="4" y="12" width="1" height="1" fill="#7A7A9E" />
<rect x="5" y="12" width="1" height="1" fill="#7A7A9E" />
<rect x="6" y="12" width="1" height="1" fill="#7A7A9E" />
<rect x="7" y="12" width="1" height="1" fill="#C8D6DB" />
<rect x="8" y="12" width="1" height="1" fill="#3E3E52" />
<rect x="9" y="12" width="1" height="1" fill="#7A7A9E" />
<rect x="10" y="12" width="1" height="1" fill="#7A7A9E" />
<rect x="11" y="12" width="1" height="1" fill="#7A7A9E" />
<rect x="12" y="12" width="1" height="1" fill="#7A7A9E" />
<rect x="13" y="12" width="1" height="1" fill="#7A7A9E" />
<rect x="14" y="12" width="1" height="1" fill="#7A7A9E" />
<rect x="15" y="12" width="1" height="1" fill="#C8D6DB" />
<rect x="0" y="13" width="1" height="1" fill="#7A7A9E" />
<rect x="1" y="13" width="1" height="1" fill="#7A7A9E" />
<rect x="2" y="13" width="1" height="1" fill="#7A7A9E" />
<rect x="3" y="13" width="1" height="1" fill="#7A7A9E" />
<rect x="4" y="13" width="1" height="1" fill="#7A7A9E" />
<rect x="5" y="13" width="1" height="1" fill="#7A7A9E" />
<rect x="6" y="13" width="1" height="1" fill="#7A7A9E" />
<rect x="7" y="13" width="1" height="1" fill="#C8D6DB" />
<rect x="8" y="13" width="1" height="1" fill="#3E3E52" />
<rect x="9" y="13" width="1" height="1" fill="#7A7A9E" />
<rect x="10" y="13" width="1" height="1" fill="#7A7A9E" />
<rect x="11" y="13" width="1" height="1" fill="#7A7A9E" />
<rect x="12" y="13" width="1" height="1" fill="#7A7A9E" />
<rect x="13" y="13" width="1" height="1" fill="#7A7A9E" />
<rect x="14" y="13" width="1" height="1" fill="#7A7A9E" />
<rect x="15" y="13" width="1" height="1" fill="#C8D6DB" />
<rect x="0" y="14" width="1" height="1" fill="#7A7A9E" />
<rect x="1" y="14" width="1" height="1" fill="#C8D6DB" />
<rect x="2" y="14" width="1" height="1" fill="#C8D6DB" />
<rect x="3" y="14" width="1" height="1" fill="#C8D6DB" />
<rect x="4" y="14" width="1" height="1" fill="#C8D6DB" />
<rect x="5" y="14" width="1" height="1" fill="#C8D6DB" />
<rect x="6" y="14" width="1" height="1" fill="#C8D6DB" />
<rect x="7" y="14" width="1" height="1" fill="#7A7A9E" />
<rect x="8" y="14" width="1" height="1" fill="#3E3E52" />
<rect x="9" y="14" width="1" height="1" fill="#7A7A9E" />
<rect x="10" y="14" width="1" height="1" fill="#C8D6DB" />
<rect x="11" y="14" width="1" height="1" fill="#C8D6DB" />
<rect x="12" y="14" width="1" height="1" fill="#C8D6DB" />
<rect x="13" y="14" width="1" height="1" fill="#C8D6DB" />
<rect x="14" y="14" width="1" height="1" fill="#C8D6DB" />
<rect x="15" y="14" width="1" height="1" fill="#7A7A9E" />
<rect x="0" y="15" width="1" height="1" fill="#222034" />
<rect x="1" y="15" width="1" height="1" fill="#222034" />
<rect x="2" y="15" width="1" height="1" fill="#222034" />
<rect x="3" y="15" width="1" height="1" fill="#222034" />
<rect x="4" y="15" width="1" height="1" fill="#222034" />
<rect x="5" y="15" width="1" height="1" fill="#222034" />
<rect x="6" y="15" width="1" height="1" fill="#222034" />
<rect x="7" y="15" width="1" height="1" fill="#222034" />
<rect x="8" y="15" width="1" height="1" fill="#222034" />
<rect x="9" y="15" width="1" height="1" fill="#222034" />
<rect x="10" y="15" width="1" height="1" fill="#222034" />
<rect x="11" y="15" width="1" height="1" fill="#222034" />
<rect x="12" y="15" width="1" height="1" fill="#222034" />
<rect x="13" y="15" width="1" height="1" fill="#222034" />
<rect x="14" y="15" width="1" height="1" fill="#222034" />
<rect x="15" y="15" width="1" height="1" fill="#222034" />
</svg>