<?xml version="1.0" encoding="UTF-8" ?>
<svg version="1.1" width="16" height="16" xmlns="http://www.w3.org/2000/svg" shape-rendering="crispEdges">
<rect x="11" y="0" width="1" height="1" fill="#7A7A9E" />
<rect x="12" y="0" width="1" height="1" fill="#7A7A9E" />
<rect x="13" y="0" width="1" height="1" fill="#7A7A9E" />
<rect x="14" y="0" width="1" height="1" fill="#C8D6DB" />
<rect x="15" y="0" width="1" height="1" fill="#222034" />
<rect x="11" y="1" width="1" height="1" fill="#7A7A9E" />
<rect x="12" y="1" width="1" height="1" fill="#7A7A9E" />
<rect x="13" y="1" width="1" height="1" fill="#7A7A9E" />
<rect x="14" y="1" width="1" height="1" fill="#C8D6DB" />
<rect x="15" y="1" width="1" height="1" fill="#3E3E52" />
<rect x="11" y="2" width="1" height="1" fill="#7A7A9E" />
<rect x="12" y="2" width="1" height="1" fill="#7A7A9E" />
<rect x="13" y="2" width="1" height="1" fill="#7A7A9E" />
<rect x="14" y="2" width="1" height="1" fill="#C8D6DB" />
<rect x="15" y="2" width="1" height="1" fill="#3E3E52" />
<rect x="11" y="3" width="1" height="1" fill="#7A7A9E" />
<rect x="12" y="3" width="1" height="1" fill="#7A7A9E" />
<rect x="13" y="3" width="1" height="1" fill="#7A7A9E" />
<rect x="14" y="3" width="1" height="1" fill="#C8D6DB" />
<rect x="15" y="3" width="1" height="1" fill="#3E3E52" />
<rect x="11" y="4" width="1" height="1" fill="#3E3E52" />
<rect x="12" y="4" width="1" height="1" fill="#C8D6DB" />
<rect x="13" y="4" width="1" height="1" fill="#C8D6DB" />
<rect x="14" y="4" width="1" height="1" fill="#7A7A9E" />
<rect x="15" y="4" width="1" height="1" fill="#3E3E52" />
<rect x="12" y="5" width="1" height="1" fill="#3E3E52" />
<rect x="13" y="5" width="1" height="1" fill="#3E3E52" />
<rect x="14" y="5" width="1" height="1" fill="#3E3E52" />
<rect x="15" y="5" width="1" height="1" fill="#3E3E52" />
</svg>